<?xml version="1.0" encoding="utf-8"?>
<!-- Generator: Adobe Illustrator 26.2.1, SVG Export Plug-In . SVG Version: 6.00 Build 0)  -->
<svg version="1.1" id="Layer_1" xmlns="http://www.w3.org/2000/svg" xmlns:xlink="http://www.w3.org/1999/xlink" x="0px" y="0px"
	 viewBox="0 0 100 100" style="enable-background:new 0 0 100 100;" xml:space="preserve">
<style type="text/css">
	.st0{fill:none;stroke:#662483;stroke-width:1.5;stroke-miterlimit:10;}
	.st1{fill:none;stroke:#009FE3;stroke-width:1.5;stroke-miterlimit:10;}
	.st2{fill:none;stroke:#EDEDED;stroke-width:1.5;stroke-linecap:round;stroke-miterlimit:10;}
	.st3{fill:#1D1D1B;stroke:#EDEDED;stroke-width:1.5;stroke-miterlimit:10;}
	.st4{fill:none;stroke:#EDEDED;stroke-width:3;stroke-linecap:round;stroke-miterlimit:10;}
</style>
<g>
	<g>
		<path class="st0" d="M38.66,85.66"/>
		<path class="st0" d="M38.66,85.66"/>
		<path class="st0" d="M70.9,71.5c-8.28,0.03-19.71,14.69-20.86,14.25"/>
		<path class="st0" d="M78.43,75.65c-0.87-0.94-4.71-4.16-7.53-4.16"/>
		<path class="st0" d="M78.32,75.79c0.09,0.03,0.17-0.07,0.11-0.14"/>
		<path class="st0" d="M74.19,85.17c-7.21-3.16-2.37-11.81,4.13-9.38"/>
		<path class="st0" d="M74.41,85.27c-0.22-0.1,0,0-0.22-0.1"/>
		<path class="st0" d="M90.6,86.56c14.13,0.33-11.57-0.02-16.19-1.29"/>
		<path class="st0" d="M90.6,86.64"/>
		<path class="st1" d="M50.29,85.69c-0.91,0.57-2.69,2.44-9.88-0.81c-8.92-4.04-1.64-14.6,6.17-11.67c0.13,0.05,0.23-0.08,0.15-0.21
			c-1.01-1.7-6.57-5.23-10.1-4.62c-8.28,1.43-15.04,17.28-22.45,19.5c-1.27,0.38-7.2,1.35-9.72-0.51"/>
	</g>
	<line class="st2" x1="59.33" y1="9.33" x2="97.93" y2="76.18"/>
	<line class="st2" x1="71.32" y1="19.45" x2="95.16" y2="60.73"/>
	<circle class="st3" cx="88.05" cy="38.04" r="0.85"/>
	<line class="st4" x1="50.63" y1="9.54" x2="94.58" y2="86.39"/>
	<line class="st2" x1="4.46" y1="87.43" x2="50.06" y2="9.03"/>
</g>
</svg>
